<svg width="16" height="16" viewBox="0 0 16 16" fill="none" xmlns="http://www.w3.org/2000/svg">
<g clip-path="url(#clip0_1566_29397)">
<path d="M8.59826 9.18689L6.53613 9.48188L6.83056 7.4192L12.1337 2.1161C12.3681 1.88169 12.686 1.75 13.0175 1.75C13.349 1.75 13.6669 1.88169 13.9014 2.1161C14.1358 2.35051 14.2675 2.66844 14.2675 2.99995C14.2675 3.33146 14.1358 3.64939 13.9014 3.8838L8.59826 9.18689Z" stroke="#CBD5E0" stroke-width="1.5" stroke-linecap="round" stroke-linejoin="round"/>
<path d="M12.1841 9.24977V13.4163C12.1841 13.6373 12.0963 13.8492 11.9401 14.0055C11.7838 14.1618 11.5718 14.2495 11.3508 14.2495H3.01787C2.79686 14.2495 2.58491 14.1618 2.42864 14.0055C2.27236 13.8492 2.18457 13.6373 2.18457 13.4163V5.0833C2.18457 4.86229 2.27236 4.65034 2.42864 4.49407C2.58491 4.33779 2.79686 4.25 3.01787 4.25H7.18434" stroke="#CBD5E0" stroke-width="1.5" stroke-linecap="round" stroke-linejoin="round"/>
</g>
<defs>
<clipPath id="clip0_1566_29397">
<rect width="15" height="15" fill="white" transform="translate(0.725586 0.5)"/>
</clipPath>
</defs>
</svg>
