<svg width="17" height="16" viewBox="0 0 17 16" fill="none" xmlns="http://www.w3.org/2000/svg">
<path d="M11.833 13.6673H5.16634C3.16634 13.6673 1.83301 12.6673 1.83301 10.334V5.66732C1.83301 3.33398 3.16634 2.33398 5.16634 2.33398H11.833C13.833 2.33398 15.1663 3.33398 15.1663 5.66732V10.334C15.1663 12.6673 13.833 13.6673 11.833 13.6673Z" stroke="#4BB6AE" stroke-miterlimit="10" stroke-linecap="round" stroke-linejoin="round"/>
<path d="M8.5 10C9.60457 10 10.5 9.10457 10.5 8C10.5 6.89543 9.60457 6 8.5 6C7.39543 6 6.5 6.89543 6.5 8C6.5 9.10457 7.39543 10 8.5 10Z" stroke="#4BB6AE" stroke-miterlimit="10" stroke-linecap="round" stroke-linejoin="round"/>
<path d="M4.16699 6.33398V9.66732" stroke="#4BB6AE" stroke-miterlimit="10" stroke-linecap="round" stroke-linejoin="round"/>
<path d="M12.833 6.33398V9.66732" stroke="#4BB6AE" stroke-miterlimit="10" stroke-linecap="round" stroke-linejoin="round"/>
</svg>
