<svg width="48" height="49" viewBox="0 0 48 49" fill="none" xmlns="http://www.w3.org/2000/svg">
<rect y="0.5" width="48" height="48" rx="24" fill="#FAFAFA"/>
<path d="M21.667 16.3333C21.667 15.7145 21.9128 15.121 22.3504 14.6834C22.788 14.2458 23.3815 14 24.0003 14C24.6192 14 25.2127 14.2458 25.6502 14.6834C26.0878 15.121 26.3337 15.7145 26.3337 16.3333C27.6735 16.9669 28.8156 17.953 29.6377 19.1862C30.4598 20.4193 30.9308 21.8529 31.0003 23.3333V26.8333C31.0881 27.5587 31.345 28.2532 31.7503 28.8611C32.1555 29.4691 32.6979 29.9733 33.3337 30.3333H14.667C15.3028 29.9733 15.8451 29.4691 16.2504 28.8611C16.6557 28.2532 16.9125 27.5587 17.0003 26.8333V23.3333C17.0698 21.8529 17.5408 20.4193 18.3629 19.1862C19.185 17.953 20.3272 16.9669 21.667 16.3333" stroke="#1A202C" stroke-width="1.5" stroke-linecap="round" stroke-linejoin="round"/>
<path d="M20.5 30.334V31.5007C20.5 32.4289 20.8687 33.3191 21.5251 33.9755C22.1815 34.6319 23.0717 35.0007 24 35.0007C24.9283 35.0007 25.8185 34.6319 26.4749 33.9755C27.1313 33.3191 27.5 32.4289 27.5 31.5007V30.334" stroke="#1A202C" stroke-width="1.5" stroke-linecap="round" stroke-linejoin="round"/>
<circle cx="33" cy="18.5" r="5.75" fill="#FF4747" stroke="#F7FAFC" stroke-width="1.5"/>
</svg>
