<svg width="20" height="21" viewBox="0 0 20 21" fill="none" xmlns="http://www.w3.org/2000/svg">
<path d="M10 5.13281H18.3333" stroke="#718096" stroke-width="1.5" stroke-miterlimit="10" stroke-linecap="round" stroke-linejoin="round"/>
<path d="M11.85 2.16602H16.4833C17.9667 2.16602 18.3333 2.53268 18.3333 3.99935V7.42435C18.3333 8.89102 17.9667 9.25768 16.4833 9.25768H11.85C10.3667 9.25768 10 8.89102 10 7.42435V3.99935C10 2.53268 10.3667 2.16602 11.85 2.16602Z" stroke="#718096" stroke-width="1.5" stroke-linecap="round" stroke-linejoin="round"/>
<path d="M1.66699 14.7168H10.0003" stroke="#718096" stroke-width="1.5" stroke-miterlimit="10" stroke-linecap="round" stroke-linejoin="round"/>
<path d="M3.51699 11.75H8.15032C9.63366 11.75 10.0003 12.1167 10.0003 13.5833V17.0083C10.0003 18.475 9.63366 18.8417 8.15032 18.8417H3.51699C2.03366 18.8417 1.66699 18.475 1.66699 17.0083V13.5833C1.66699 12.1167 2.03366 11.75 3.51699 11.75Z" stroke="#718096" stroke-width="1.5" stroke-linecap="round" stroke-linejoin="round"/>
<path d="M18.3333 13C18.3333 16.225 15.725 18.8333 12.5 18.8333L13.375 17.375" stroke="#718096" stroke-width="1.5" stroke-linecap="round" stroke-linejoin="round"/>
<path d="M1.66699 7.99935C1.66699 4.77435 4.27533 2.16602 7.50033 2.16602L6.62534 3.62435" stroke="#718096" stroke-width="1.5" stroke-linecap="round" stroke-linejoin="round"/>
</svg>
