<svg width="18" height="19" viewBox="0 0 18 19" fill="none" xmlns="http://www.w3.org/2000/svg">
<path d="M13.8253 18.4577H4.17533C1.89199 18.4577 0.0419922 16.5993 0.0419922 14.316V8.14099C0.0419922 7.00766 0.741992 5.58266 1.64199 4.88266L6.13366 1.38266C7.48366 0.332661 9.64199 0.282661 11.042 1.26599L16.192 4.87433C17.1837 5.56599 17.9587 7.04933 17.9587 8.25766V14.3243C17.9587 16.5993 16.1087 18.4577 13.8253 18.4577ZM6.90033 2.36599L2.40866 5.86599C1.81699 6.33266 1.29199 7.39099 1.29199 8.14099V14.316C1.29199 15.9077 2.58366 17.2077 4.17533 17.2077H13.8253C15.417 17.2077 16.7087 15.916 16.7087 14.3243V8.25766C16.7087 7.45766 16.1337 6.34933 15.4753 5.89933L10.3253 2.29099C9.37533 1.62433 7.80866 1.65766 6.90033 2.36599Z" fill="#718096"/>
</svg>
