<svg width="14" height="14" viewBox="0 0 14 14" fill="none" xmlns="http://www.w3.org/2000/svg">
<path d="M2.26074 12.4167V11.7396C2.26074 11.1172 2.38334 10.5009 2.62152 9.92582C2.85971 9.35079 3.20882 8.8283 3.64893 8.38819C4.08905 7.94808 4.61153 7.59897 5.18657 7.36078C5.7616 7.12259 6.37791 7 7.00033 7C7.62274 7 8.23905 7.12259 8.81409 7.36078C9.38912 7.59897 9.91161 7.94808 10.3517 8.38819C10.7918 8.8283 11.1409 9.35079 11.3791 9.92582C11.6173 10.5009 11.7399 11.1172 11.7399 11.7396V12.4167" stroke="#4BB6AE" stroke-linecap="round" stroke-linejoin="round"/>
<path d="M7.00033 7.00065C7.71862 7.00065 8.4075 6.71531 8.91541 6.2074C9.42332 5.69949 9.70866 5.01061 9.70866 4.29232C9.70866 3.57402 9.42332 2.88515 8.91541 2.37724C8.4075 1.86933 7.71862 1.58398 7.00033 1.58398C6.28203 1.58398 5.59316 1.86933 5.08524 2.37724C4.57733 2.88515 4.29199 3.57402 4.29199 4.29232C4.29199 5.01061 4.57733 5.69949 5.08524 6.2074C5.59316 6.71531 6.28203 7.00065 7.00033 7.00065V7.00065Z" stroke="#4BB6AE" stroke-linecap="round" stroke-linejoin="round"/>
</svg>
